<?xml version="1.0" encoding="UTF-8"?>
<svg version="1.1" xmlns="http://www.w3.org/2000/svg" width="662" height="658">
<path d="M0 0 C1.0111084 0.16097168 2.0222168 0.32194336 3.06396484 0.48779297 C71.70825719 11.50686904 135.54449943 45.26185383 184 95 C198.42263219 76.50509519 209.3369206 55.28897181 219 34 C221.92544377 36.92544377 222.69542268 40.57444221 223.94921875 44.4296875 C224.23845215 45.30560547 224.52768555 46.18152344 224.82568359 47.08398438 C225.7880512 50.01164284 226.73900236 52.94282007 227.6875 55.875 C228.01746979 56.89128479 228.34743958 57.90756958 228.68740845 58.95465088 C249.40688641 122.92183433 267.2143721 188.23093061 276 255 C276.16371094 256.17997559 276.32742188 257.35995117 276.49609375 258.57568359 C281.41419726 294.9787948 281.25145276 333.63775294 276 370 C275.7831958 371.52947266 275.7831958 371.52947266 275.56201172 373.08984375 C274.58120738 379.77191276 273.37309964 386.38801475 272 393 C271.80067871 393.97001953 271.60135742 394.94003906 271.39599609 395.93945312 C261.09790626 444.86925333 239.13426342 490.95166157 208 530 C207.20851563 531.00546875 206.41703125 532.0109375 205.6015625 533.046875 C191.64847362 550.47564306 175.66675955 567.33468599 158 581 C156.87489057 581.92248149 155.75268332 582.84850971 154.6328125 583.77734375 C140.16092168 595.71699403 124.52624654 605.63191454 108.17089844 614.78320312 C106.23393132 615.8688806 104.30790317 616.97160229 102.3828125 618.078125 C60.83015328 641.25715939 10.01379542 654.97209327 -37.625 655.203125 C-38.60188278 655.21018463 -39.57876556 655.21724426 -40.58525085 655.22451782 C-110.1347251 655.6127946 -178.36606404 639.56913928 -236 599 C-237.06734375 598.2678125 -238.1346875 597.535625 -239.234375 596.78125 C-263.83643687 579.74201813 -287.62578059 558.66679348 -306 535 C-306.92397097 533.87374152 -307.85127752 532.75021428 -308.78125 531.62890625 C-320.74754563 517.12028498 -330.81404807 501.39033122 -340 485 C-340.40959961 484.27264648 -340.81919922 483.54529297 -341.24121094 482.79589844 C-358.64500884 451.61579212 -370.00014114 417.2849217 -376.25 382.1875 C-376.40114258 381.34243896 -376.55228516 380.49737793 -376.70800781 379.62670898 C-377.18864287 376.75618936 -377.60617134 373.88380003 -378 371 C-378.08720306 370.36283051 -378.17440613 369.72566101 -378.26425171 369.06918335 C-380.1429418 354.8671292 -380.36065977 340.74751961 -380.3125 326.4375 C-380.31034485 325.28603485 -380.3081897 324.1345697 -380.30596924 322.94821167 C-380.25637121 306.4474069 -379.9790867 290.27389681 -377 274 C-376.70198486 272.31003906 -376.70198486 272.31003906 -376.39794922 270.5859375 C-366.31079173 214.61165831 -343.22950381 160.40159086 -306 117 C-305.21753906 116.03449219 -304.43507813 115.06898437 -303.62890625 114.07421875 C-296.87385447 105.82225862 -289.45411117 98.23904328 -281.9375 90.6875 C-281.43088837 90.17571198 -280.92427673 89.66392395 -280.40231323 89.1366272 C-273.60735903 82.28701563 -266.58838982 75.97958474 -259 70 C-258.24936279 69.39534912 -257.49872559 68.79069824 -256.7253418 68.16772461 C-211.91371379 32.09034978 -158.67034097 9.32394765 -102 0 C-101.05366699 -0.16516113 -100.10733398 -0.33032227 -99.13232422 -0.50048828 C-67.36208855 -5.87237461 -31.71899825 -5.48909284 0 0 Z M216 72 C215.12601563 73.54494141 215.12601563 73.54494141 214.234375 75.12109375 C205.21581333 90.86950737 195.05971578 105.43446606 183 119 C182.14019531 119.98226562 181.28039062 120.96453125 180.39453125 121.9765625 C169.09716635 134.62560622 156.59477105 145.87565681 143 156 C142.45053711 156.41169434 141.90107422 156.82338867 141.33496094 157.24755859 C82.85548475 200.80528054 18.16882398 218.18030435 -53.62805176 221.95404053 C-59.79841996 222.27899887 -65.96797805 222.61814894 -72.13671875 222.97265625 C-72.8029318 223.01093285 -73.46914486 223.04920944 -74.15554619 223.08864594 C-128.18170331 226.24764815 -181.27066146 237.20231056 -223 274 C-223.48662109 274.42635742 -223.97324219 274.85271484 -224.47460938 275.29199219 C-256.38373011 303.37929808 -277.67610633 343.31834596 -281 386 C-282.78714763 421.11615591 -276.49001602 453.59546329 -255 482 C-254.44957031 482.73605469 -253.89914063 483.47210938 -253.33203125 484.23046875 C-246.52137243 492.65550596 -234.47545974 502.80238038 -224 506 C-217.38112274 505.79762067 -210.85649462 504.23447144 -204.41796875 502.8046875 C-202.88391136 502.46866516 -202.88391136 502.46866516 -201.31886292 502.12585449 C-197.94021003 501.38230661 -194.56366227 500.62977245 -191.1875 499.875 C-189.43149475 499.48384003 -189.43149475 499.48384003 -187.64001465 499.08477783 C-147.15990901 490.04303381 -106.51079102 480.68476468 -67 468 C-66.37359619 467.79908752 -65.74719238 467.59817505 -65.10180664 467.39117432 C-42.95449666 460.26376473 -21.55590305 451.74455198 -0.91259766 440.99316406 C1.05847016 439.96963791 3.03849635 438.96501717 5.01953125 437.9609375 C22.93271882 428.78661203 39.77539689 417.88110093 56 406 C56.67901367 405.5064502 57.35802734 405.01290039 58.05761719 404.50439453 C70.54932655 395.40363045 82.21923828 385.52094846 93.65234375 375.12890625 C95.21801848 373.70911802 96.79362323 372.30020415 98.37890625 370.90234375 C108.19827644 362.21779644 117.53329211 353.01264607 126 343 C126.84433594 342.04480469 127.68867188 341.08960938 128.55859375 340.10546875 C151.81978173 313.69082494 171.21218764 283.77773481 184.19580078 251.00439453 C185.40964053 247.97900767 186.70358521 244.99081711 188 242 C182.47233639 268.74846676 174.04211173 293.48440376 162 318 C161.62939453 318.76038574 161.25878906 319.52077148 160.87695312 320.30419922 C148.87291915 344.67551772 133.32498697 367.59936052 115.51171875 388.0859375 C113.10245769 390.88112995 110.7975562 393.73780549 108.5 396.625 C104.49152746 401.56016243 100.10467162 405.99631899 95.56640625 410.43359375 C93.3649168 412.6350832 91.32144967 414.87495472 89.3125 417.25 C86.56499138 420.45542673 83.6301684 423.17867259 80.41015625 425.90234375 C77.92831335 428.06239178 75.54457815 430.30312606 73.15698242 432.56591797 C66.34481056 439.0038357 59.3004633 444.95060223 51.83154297 450.60986328 C49.93279898 452.05100541 48.04638385 453.50736892 46.16015625 454.96484375 C3.47018523 487.72888118 -45.04913697 506.36261447 -96 522 C-103.04250606 524.16394385 -110.08426865 526.33028871 -117.125 528.5 C-118.42929962 528.90150772 -118.42929962 528.90150772 -119.75994873 529.31112671 C-132.66151364 533.28703633 -145.50769853 537.41014094 -158.3125 541.6875 C-159.46555634 542.07228516 -159.46555634 542.07228516 -160.64190674 542.46484375 C-169.89651249 545.52462825 -169.89651249 545.52462825 -179 549 C-179 549.33 -179 549.66 -179 550 C-178.06824951 549.91697632 -178.06824951 549.91697632 -177.11767578 549.83227539 C-174.12065318 549.56915291 -171.12285843 549.31591609 -168.125 549.0625 C-167.15046875 548.97548828 -166.1759375 548.88847656 -165.171875 548.79882812 C-143.33082444 546.97874058 -121.52105948 546.89985718 -99.625 547.375 C-97.04590909 547.42495079 -94.46680727 547.47434134 -91.88769531 547.52319336 C-79.18404018 547.7705092 -66.48459551 548.08704071 -53.78527832 548.49746704 C14.59300284 550.68234854 88.53982095 552.45957457 152 523 C152.70060547 522.67918457 153.40121094 522.35836914 154.12304688 522.02783203 C168.75910839 515.2629482 181.83953505 506.59824464 194 496 C194.97582031 495.15824219 195.95164062 494.31648438 196.95703125 493.44921875 C241.50513291 454.32349108 259.26524144 393.03559774 263.40625 335.77734375 C263.71363503 330.85383322 263.88482469 325.93142294 264 321 C264.02191406 320.14889648 264.04382813 319.29779297 264.06640625 318.42089844 C265.76109588 241.84917183 246.8744239 165.9387082 224 93.4375 C223.7144223 92.52966766 223.4288446 91.62183533 223.13461304 90.68649292 C222.32498922 88.1210415 221.50789216 85.55811939 220.6875 82.99609375 C220.32408257 81.84566589 220.32408257 81.84566589 219.95332336 80.67199707 C218.90633153 77.43379513 217.90061055 74.85091582 216 72 Z M-272.125 534.5 C-277.34037841 541.66141512 -278.00072203 549.38772554 -277 558 C-275.76044763 561.65445718 -274.08334306 564.7626185 -272 568 C-271.1646875 569.3921875 -271.1646875 569.3921875 -270.3125 570.8125 C-264.17289082 576.62023842 -256.08288083 579.38656476 -247.7578125 579.27734375 C-240.14678331 578.51192863 -232.91156308 574.89887474 -228 569 C-223.53641116 561.67275805 -220.47362531 554.44219905 -222.53125 545.7578125 C-225.21853059 537.08256971 -229.88018059 530.52913992 -237.80859375 525.95703125 C-250.06450566 520.52977712 -263.74237648 524.24300103 -272.125 534.5 Z " fill="#5DB531" transform="translate(380,3)"/>
<path d="M0 0 C1.2825732 2.5651464 0.83262969 3.57895596 0.22265625 6.3515625 C-0.05288086 7.62773437 -0.05288086 7.62773437 -0.33398438 8.9296875 C-0.53314453 9.81914062 -0.73230469 10.70859375 -0.9375 11.625 C-1.13279297 12.5221875 -1.32808594 13.419375 -1.52929688 14.34375 C-2.01347896 16.56390201 -2.50394969 18.7824749 -3 21 C-3.66 20.01 -4.32 19.02 -5 18 C-5.66 18.33 -6.32 18.66 -7 19 C-5.17778624 12.38757278 -2.94776396 6.19479329 0 0 Z " fill="#2A5216" transform="translate(568,243)"/>
<path d="M0 0 C0.598125 0.763125 1.19625 1.52625 1.8125 2.3125 C3.46959332 4.3483575 5.10297674 6.1978279 7 8 C6.67 8.66 6.34 9.32 6 10 C3.36 7.69 0.72 5.38 -2 3 C-1.34 2.67 -0.68 2.34 0 2 C0 1.34 0 0.68 0 0 Z " fill="#1A320D" transform="translate(105,566)"/>
<path d="M0 0 C0.66 0 1.32 0 2 0 C2 2.97 2 5.94 2 9 C1.34 8.01 0.68 7.02 0 6 C-0.99 6.495 -0.99 6.495 -2 7 C-1.34 4.69 -0.68 2.38 0 0 Z " fill="#3E7920" transform="translate(563,255)"/>
<path d="M0 0 C5 2 5 2 10 4 C8.02 4.99 8.02 4.99 6 6 C3.97945196 4.35830472 1.97956942 2.69088222 0 1 C0 0.67 0 0.34 0 0 Z " fill="#1D390F" transform="translate(112,576)"/>
</svg>
